<?xml version="1.0" encoding="UTF-8"?>
<svg id="Laag_2" data-name="Laag 2" xmlns="http://www.w3.org/2000/svg" xmlns:xlink="http://www.w3.org/1999/xlink" viewBox="0 0 496.66 133.74">
  <defs>
    <style>
      .cls-1 {
        fill: none;
      }

      .cls-2 {
        fill: #d9d9d9;
      }

      .cls-3 {
        clip-path: url(#clippath-17);
      }

      .cls-4 {
        clip-path: url(#clippath-11);
      }

      .cls-5 {
        clip-path: url(#clippath-16);
      }

      .cls-6 {
        clip-path: url(#clippath-18);
      }

      .cls-7 {
        clip-path: url(#clippath-10);
      }

      .cls-8 {
        clip-path: url(#clippath-15);
      }

      .cls-9 {
        clip-path: url(#clippath-13);
      }

      .cls-10 {
        clip-path: url(#clippath-14);
      }

      .cls-11 {
        clip-path: url(#clippath-12);
      }

      .cls-12 {
        clip-path: url(#clippath-1);
      }

      .cls-13 {
        clip-path: url(#clippath-3);
      }

      .cls-14 {
        clip-path: url(#clippath-4);
      }

      .cls-15 {
        clip-path: url(#clippath-2);
      }

      .cls-16 {
        clip-path: url(#clippath-7);
      }

      .cls-17 {
        clip-path: url(#clippath-6);
      }

      .cls-18 {
        clip-path: url(#clippath-9);
      }

      .cls-19 {
        clip-path: url(#clippath-8);
      }

      .cls-20 {
        clip-path: url(#clippath-5);
      }

      .cls-21 {
        fill: #fff;
      }

      .cls-22 {
        fill: #121212;
      }

      .cls-23 {
        fill: #083d87;
      }

      .cls-24 {
        clip-path: url(#clippath);
      }
    </style>
    <clipPath id="clippath">
      <rect class="cls-1" width="130.22" height="130.22"/>
    </clipPath>
    <clipPath id="clippath-1">
      <path class="cls-1" d="M65.11,0C29.15,0,0,29.15,0,65.11s29.15,65.11,65.11,65.11,65.11-29.15,65.11-65.11S101.07,0,65.11,0Z"/>
    </clipPath>
    <clipPath id="clippath-2">
      <rect class="cls-1" x="32" y="46.3" width="37.33" height="37.33"/>
    </clipPath>
    <clipPath id="clippath-3">
      <rect class="cls-1" x="32.74" y="46.97" width="36.17" height="36.17" transform="translate(-31.08 54.67) rotate(-44.77)"/>
    </clipPath>
    <clipPath id="clippath-4">
      <path class="cls-1" d="M38.09,52.22c-7.09,7.04-7.14,18.48-.1,25.58,7.04,7.09,18.48,7.13,25.57.09,7.09-7.03,7.14-18.48.1-25.57-7.03-7.09-18.48-7.13-25.57-.1Z"/>
    </clipPath>
    <clipPath id="clippath-5">
      <rect class="cls-1" x="37.33" y="38.3" width="40" height="40"/>
    </clipPath>
    <clipPath id="clippath-6">
      <rect class="cls-1" x="48.2" y="40.61" width="18.09" height="36.17" transform="translate(-24.73 57.35) rotate(-44.78)"/>
    </clipPath>
    <clipPath id="clippath-7">
      <rect class="cls-1" x="57.33" y="71.63" width="37.33" height="37.33"/>
    </clipPath>
    <clipPath id="clippath-8">
      <rect class="cls-1" x="58.2" y="72.65" width="36.17" height="36.17" transform="translate(-41.77 80.06) rotate(-44.78)"/>
    </clipPath>
    <clipPath id="clippath-9">
      <path class="cls-1" d="M89.03,103.57c7.09-7.04,7.13-18.48.09-25.58-7.03-7.09-18.48-7.13-25.57-.1-7.09,7.04-7.13,18.49-.1,25.58,7.04,7.09,18.48,7.13,25.58.1Z"/>
    </clipPath>
    <clipPath id="clippath-10">
      <rect class="cls-1" x="50.67" y="76.96" width="38.67" height="40"/>
    </clipPath>
    <clipPath id="clippath-11">
      <rect class="cls-1" x="60.83" y="79.01" width="18.08" height="36.17" transform="translate(-48.12 77.41) rotate(-44.79)"/>
    </clipPath>
    <clipPath id="clippath-12">
      <rect class="cls-1" x="37.33" y="51.63" width="52" height="52"/>
    </clipPath>
    <clipPath id="clippath-13">
      <rect class="cls-1" x="45.48" y="59.81" width="36.17" height="36.17" transform="translate(-36.42 67.37) rotate(-44.78)"/>
    </clipPath>
    <clipPath id="clippath-14">
      <rect class="cls-1" x="57.33" y="20.96" width="37.33" height="37.33"/>
    </clipPath>
    <clipPath id="clippath-15">
      <rect class="cls-1" x="58.42" y="21.4" width="36.17" height="36.17" transform="translate(-5.51 65.67) rotate(-45.01)"/>
    </clipPath>
    <clipPath id="clippath-16">
      <path class="cls-1" d="M63.71,26.69c-7.06,7.06-7.06,18.52,0,25.58,7.06,7.06,18.51,7.06,25.57,0s7.06-18.52,0-25.58c-7.06-7.06-18.51-7.06-25.57,0Z"/>
    </clipPath>
    <clipPath id="clippath-17">
      <rect class="cls-1" x="50.93" y="25.97" width="34.48" height="27.08"/>
    </clipPath>
    <clipPath id="clippath-18">
      <polygon class="cls-1" points="71.87 25.97 64.47 25.97 50.93 39.52 64.47 53.06 71.87 53.06 85.41 39.52 71.87 25.97"/>
    </clipPath>
  </defs>
  <g id="Laag_1-2" data-name="Laag 1">
    <g class="cls-24">
      <g class="cls-12">
        <path class="cls-23" d="M0,0h130.22v130.22H0V0Z"/>
      </g>
    </g>
    <g class="cls-15">
      <g class="cls-13">
        <g class="cls-14">
          <path class="cls-21" d="M25.25,64.96l25.68-25.47,25.47,25.67-25.67,25.47-25.48-25.67Z"/>
        </g>
      </g>
    </g>
    <g class="cls-20">
      <g class="cls-17">
        <path class="cls-21" d="M38.09,52.22l12.84-12.74,25.47,25.67-12.84,12.74-25.47-25.67Z"/>
      </g>
    </g>
    <g class="cls-16">
      <g class="cls-19">
        <g class="cls-18">
          <path class="cls-21" d="M101.86,90.83l-25.67,25.47-25.47-25.67,25.67-25.47,25.47,25.67Z"/>
        </g>
      </g>
    </g>
    <g class="cls-7">
      <g class="cls-4">
        <path class="cls-21" d="M89.03,103.56l-12.83,12.74-25.47-25.67,12.83-12.74,25.47,25.67Z"/>
      </g>
    </g>
    <g class="cls-11">
      <g class="cls-9">
        <path class="cls-21" d="M37.99,77.79l25.67-25.47,25.48,25.67-25.68,25.48-25.47-25.68Z"/>
      </g>
    </g>
    <g class="cls-10">
      <g class="cls-8">
        <g class="cls-5">
          <path class="cls-2" d="M50.93,39.48l25.57-25.58,25.57,25.58-25.57,25.57-25.57-25.57Z"/>
        </g>
      </g>
    </g>
    <g class="cls-3">
      <g class="cls-6">
        <path class="cls-2" d="M50.93,25.97h34.48v27.08h-34.48v-27.08Z"/>
      </g>
    </g>
    <path class="cls-22" d="M224.33,59.55c4.03,2.1,7.16,5.06,9.4,8.88,2.23,3.82,3.35,8.18,3.35,13.08s-1.29,9.4-3.88,13.44c-2.58,4.03-6.09,7.23-10.52,9.6-4.43,2.36-9.28,3.54-14.54,3.54h-39.21V15.99h38.17c5.25,0,9.96,1.04,14.13,3.1,4.17,2.06,7.46,4.89,9.88,8.48,2.42,3.6,3.63,7.64,3.63,12.1,0,3.95-.93,7.68-2.77,11.19-1.85,3.52-4.39,6.41-7.63,8.69ZM215.37,42.84c0-2.9-.93-5.27-2.77-7.1-1.83-1.84-4.33-2.77-7.48-2.77h-16.58v19.6h16.58c3.15,0,5.65-.92,7.48-2.75s2.77-4.17,2.77-6.98ZM206.16,89.8c3.33,0,5.98-.96,7.96-2.9,1.97-1.93,2.96-4.43,2.96-7.5s-.99-5.42-2.96-7.35c-1.97-1.93-4.63-2.9-7.96-2.9h-17.63v20.65h17.63Z"/>
    <path class="cls-22" d="M252.09,108.09V11.38h19.21v96.71h-19.21Z"/>
    <path class="cls-22" d="M338.8,37.05h20.52l-31.06,70.13c-2.81,6.4-5.66,11.55-8.56,15.46-2.89,3.9-6.18,6.73-9.85,8.48-3.68,1.75-8.2,2.63-13.54,2.63h-7.9v-17.35h6.71c3.07,0,5.5-.35,7.29-1.06,1.8-.7,3.34-1.99,4.6-3.88,1.28-1.89,2.66-4.63,4.15-8.23l.27-.52-30.13-65.65h20.92l18.94,43.67,17.65-43.67Z"/>
    <path class="cls-22" d="M409.43,35.34c8.07,0,14.45,2.7,19.15,8.1,4.69,5.39,7.04,12.6,7.04,21.63v43.02h-19.21v-40c0-10.61-4.13-15.92-12.38-15.92-4.91,0-8.79,1.67-11.65,5-2.85,3.33-4.27,7.85-4.27,13.56v37.35h-19.21V37.05h13.17l3.81,8.81c2.63-3.25,6-5.81,10.13-7.69,4.13-1.89,8.59-2.83,13.42-2.83Z"/>
    <path class="cls-22" d="M487.97,90.99h8.69v17.1h-13.54c-7.81,0-13.97-2.26-18.5-6.77-4.52-4.51-6.77-10.72-6.77-18.63v-30.25h-12.9v-4.08l28.17-29.88h3.54v18.56h19.6v15.4h-19.21v27.75c0,3.43.94,6.09,2.83,7.98,1.89,1.88,4.58,2.81,8.08,2.81Z"/>
  </g>
</svg>